<svg width="108" height="98" viewBox="0 0 108 98" fill="none" xmlns="http://www.w3.org/2000/svg">
<path d="M33.1473 35.4972L37.4058 9.9082H15.2571L6.00249 31.8416C5.71715 32.6215 5.56641 33.4306 5.56641 34.2787C5.56641 39.6597 11.7577 44.0269 19.408 44.0269C26.4607 44.0269 32.2913 40.3031 33.1473 35.4972ZM54.02 44.0269C61.6649 44.0269 67.8616 39.6597 67.8616 34.2787C67.8616 34.0788 67.8454 33.879 67.8347 33.6889L65.0944 9.9082H42.9457L40.2 33.6694C40.1892 33.8693 40.1784 34.0691 40.1784 34.2787C40.1784 39.6597 46.3751 44.0269 54.02 44.0269ZM80.9387 49.1252V68.3974H27.1013V49.1544C24.7433 49.9245 22.1483 50.3632 19.408 50.3632C18.3582 50.3632 17.3406 50.2511 16.3339 50.1244V81.07C16.3339 84.8231 19.7202 87.8937 23.8603 87.8937H84.1689C88.3144 87.8937 91.7062 84.8182 91.7062 81.07V50.1292C90.6885 50.2707 89.6615 50.3505 88.6321 50.3681C86.0069 50.3657 83.4027 49.945 80.9387 49.1252ZM102.043 31.8416L92.7775 9.9082H70.6342L74.8874 35.4582C75.7165 40.2836 81.5471 44.0269 88.6321 44.0269C96.277 44.0269 102.474 39.6597 102.474 34.2787C102.474 33.4306 102.323 32.6215 102.043 31.8416Z" fill="white"/>
</svg>
