<svg width="97" height="87" viewBox="0 0 97 87" fill="none" xmlns="http://www.w3.org/2000/svg">
<path d="M31.9899 5.74268C28.4202 5.74268 24.9968 7.02647 22.4727 9.31165C19.9486 11.5968 18.5305 14.6962 18.5305 17.9279V73.4385C18.5305 75.5929 19.4759 77.6592 21.1586 79.1826C22.8414 80.7061 25.1237 81.562 27.5034 81.562H63.395C65.7747 81.562 68.057 80.7061 69.7398 79.1826C71.4225 77.6592 72.3679 75.5929 72.3679 73.4385V65.315H76.8543C80.424 65.315 83.8474 64.0312 86.3715 61.746C88.8956 59.4608 90.3137 56.3614 90.3137 53.1297V34.1749C90.3137 30.9432 88.8956 27.8438 86.3715 25.5586C83.8474 23.2735 80.424 21.9897 76.8543 21.9897H72.3679V17.9279C72.3679 14.6962 70.9498 11.5968 68.4257 9.31165C65.9016 7.02647 62.4782 5.74268 58.9085 5.74268H31.9899ZM72.3679 27.4053H76.8543C80.9818 27.4053 84.3317 30.4381 84.3317 34.1749V53.1297C84.3317 56.8665 80.9818 59.8993 76.8543 59.8993H72.3679V27.4053ZM24.5124 17.9279C24.5124 14.1911 27.8623 11.1583 31.9899 11.1583H58.9085C63.0361 11.1583 66.3859 14.1911 66.3859 17.9279V21.9897H24.5124V17.9279ZM60.404 35.5288V62.6071C60.404 63.3253 60.0889 64.014 59.528 64.5219C58.9671 65.0297 58.2063 65.315 57.413 65.315C56.6198 65.315 55.859 65.0297 55.2981 64.5219C54.7372 64.014 54.4221 63.3253 54.4221 62.6071V35.5288C54.4221 34.8107 54.7372 34.1219 55.2981 33.6141C55.859 33.1063 56.6198 32.821 57.413 32.821C58.2063 32.821 58.9671 33.1063 59.528 33.6141C60.0889 34.1219 60.404 34.8107 60.404 35.5288ZM45.4492 32.821C46.2424 32.821 47.0032 33.1063 47.5641 33.6141C48.125 34.1219 48.4402 34.8107 48.4402 35.5288V62.6071C48.4402 63.3253 48.125 64.014 47.5641 64.5219C47.0032 65.0297 46.2424 65.315 45.4492 65.315C44.6559 65.315 43.8952 65.0297 43.3343 64.5219C42.7733 64.014 42.4582 63.3253 42.4582 62.6071V35.5288C42.4582 34.8107 42.7733 34.1219 43.3343 33.6141C43.8952 33.1063 44.6559 32.821 45.4492 32.821ZM36.4763 35.5288V62.6071C36.4763 63.3253 36.1612 64.014 35.6003 64.5219C35.0394 65.0297 34.2786 65.315 33.4853 65.315C32.6921 65.315 31.9313 65.0297 31.3704 64.5219C30.8095 64.014 30.4944 63.3253 30.4944 62.6071V35.5288C30.4944 34.8107 30.8095 34.1219 31.3704 33.6141C31.9313 33.1063 32.6921 32.821 33.4853 32.821C34.2786 32.821 35.0394 33.1063 35.6003 33.6141C36.1612 34.1219 36.4763 34.8107 36.4763 35.5288Z" fill="#F8F8F8"/>
</svg>
