<svg width="96" height="79" viewBox="0 0 96 79" fill="none" xmlns="http://www.w3.org/2000/svg">
<path d="M83.471 10.8229H25.8932L25.3378 8.82326C24.7206 6.26818 23.3321 4.18523 21.1722 2.57442C19.0122 0.963609 16.4511 0.158203 13.4889 0.158203H4.41719C3.30636 0.158203 2.38067 0.491475 1.64012 1.15802C0.899572 1.82456 0.529297 2.71329 0.529297 3.82419C0.529297 4.82401 0.899572 5.65718 1.64012 6.32373C2.38067 6.99027 3.30636 7.32354 4.41719 7.32354H13.4889C15.834 7.32354 17.1917 8.26781 17.562 10.1564L26.6337 52.8151C27.3743 55.148 28.8245 57.0365 30.9845 58.4807C33.1444 59.9249 35.5203 60.647 38.1123 60.647H75.5101C76.7443 60.647 77.7318 60.3137 78.4723 59.6472C79.2129 58.9806 79.5831 58.1475 79.5831 57.1476C79.5831 54.7036 78.2254 53.4817 75.5101 53.4817H38.1123C36.3843 53.4817 35.1501 52.8151 34.4095 51.482L34.0392 49.9823H73.6587C76.1272 49.9823 78.3797 49.3158 80.4162 47.9827C82.4528 46.6496 83.8413 44.9277 84.5818 42.817L95.3198 22.3208V21.4876C95.3198 18.4881 94.1782 15.9608 91.8948 13.9057C89.6114 11.8505 86.8035 10.8229 83.471 10.8229ZM36.0758 42.817H32.5581L27.3743 17.9882H36.0758V42.817ZM51.8125 42.817H44.0367V17.9882H51.8125V42.817ZM67.7343 42.817H59.7734V17.9882H67.7343V42.817ZM77.5466 39.9842V40.3174C77.1763 41.4283 76.4975 42.1504 75.5101 42.4837V17.9882H83.471C85.6927 17.9882 86.9886 18.9325 87.3589 20.821L77.5466 39.9842ZM47.9246 71.3117C47.9246 73.3113 47.1532 75.0054 45.6103 76.3941C44.0675 77.7827 42.1853 78.477 39.9636 78.477C37.8654 78.477 36.0449 77.7827 34.5021 76.3941C32.9593 75.0054 32.1879 73.3113 32.1879 71.3117C32.1879 69.312 32.9593 67.6179 34.5021 66.2293C36.0449 64.8407 37.8654 64.1463 39.9636 64.1463C42.1853 64.1463 44.0675 64.8407 45.6103 66.2293C47.1532 67.6179 47.9246 69.312 47.9246 71.3117ZM79.5831 71.3117C79.5831 73.3113 78.8117 75.0054 77.2689 76.3941C75.7261 77.7827 73.8439 78.477 71.6222 78.477C69.4006 78.477 67.5183 77.7827 65.9755 76.3941C64.4327 75.0054 63.6613 73.3113 63.6613 71.3117C63.6613 69.312 64.4327 67.6179 65.9755 66.2293C67.5183 64.8407 69.4006 64.1463 71.6222 64.1463C73.8439 64.1463 75.7261 64.8407 77.2689 66.2293C78.8117 67.6179 79.5831 69.312 79.5831 71.3117Z" fill="white"/>
</svg>
