<svg width="96" height="85" viewBox="0 0 96 85" fill="none" xmlns="http://www.w3.org/2000/svg">
<path fill-rule="evenodd" clip-rule="evenodd" d="M11.2763 28.7762C10.5129 29.2366 9.73047 29.7086 8.94928 29.7069C6.55911 29.7095 4.14815 28.8252 2.39931 27.1075C0.825655 25.5645 0.0358575 23.5861 0.0388267 21.6372C0.0358575 19.4733 1.00677 17.2852 2.90407 15.7019C15.431 5.23446 31.503 -0.0100102 47.5454 -0.00732318C63.5908 -0.0100102 79.6599 5.19145 92.1868 15.6589C94.0841 17.2422 95.055 19.3685 95.052 21.5297C95.055 23.4785 94.2652 25.3441 92.6915 26.8897C90.9427 28.6021 88.5347 29.2606 86.1445 29.2579C85.2076 29.2579 84.2707 28.8428 83.366 28.442C83.0924 28.3207 82.8217 28.2008 82.5548 28.094L55.6987 79.3317H55.6928C54.1696 82.0198 50.7788 84.173 47.5484 84.1434C44.3179 84.173 40.9272 82.0198 39.404 79.3317H39.398L12.542 28.0967C12.1285 28.2621 11.7054 28.5173 11.2763 28.7762L11.2763 28.7762ZM53.4837 59.0527C53.4897 61.515 55.3484 63.5794 57.8544 64.2112L62.7772 54.655C61.8182 54.0502 60.678 53.6765 59.4221 53.6765C56.156 53.6819 53.4897 56.0958 53.4837 59.0527ZM65.2951 49.7682C63.5551 48.8623 61.5688 48.2978 59.4221 48.2978C52.8632 48.3032 47.5513 53.1149 47.5454 59.0502C47.5484 63.6791 50.7996 67.5902 55.3335 69.1036L50.3127 78.848L50.2741 78.9259C49.7218 80.0603 48.7182 80.5254 47.5454 80.5549C46.3726 80.5254 45.369 80.0603 44.8167 78.9259L44.7781 78.848L17.4143 25.7286C26.1377 19.3578 36.8178 16.1294 47.5454 16.1294C58.273 16.1321 68.9501 19.3578 77.6794 25.7313L65.2951 49.7682ZM47.5454 5.39575C32.9164 5.39844 18.311 10.1564 6.93322 19.6668C6.29188 20.2018 5.98012 20.9087 5.97715 21.6426C5.98012 22.3039 6.2325 22.9409 6.76398 23.4651C7.35781 24.0457 8.1387 24.328 8.94928 24.3307C9.67672 24.328 10.3774 24.0995 10.9594 23.6157C11.0511 23.5395 11.1476 23.4698 11.2443 23.3999C11.3354 23.334 11.4268 23.268 11.5146 23.1963C11.55 23.1597 11.594 23.13 11.6379 23.1004C11.6714 23.0778 11.7048 23.0552 11.7344 23.0296C21.8889 14.8632 34.7186 10.7504 47.5454 10.7531C60.3722 10.7504 73.2049 14.8632 83.3565 23.027C83.3857 23.0512 83.4175 23.0728 83.4491 23.0942C83.4944 23.125 83.5394 23.1556 83.5762 23.1936C83.6639 23.2652 83.7543 23.3311 83.8445 23.3968C83.9407 23.4668 84.0365 23.5367 84.1285 23.613C84.7104 24.0968 85.4171 24.3253 86.1416 24.328C86.9521 24.3253 87.736 24.0431 88.3269 23.4651C88.8583 22.9409 89.1107 22.3039 89.1137 21.6426C89.1107 20.9087 88.799 20.2018 88.1576 19.6668C76.7798 10.1564 62.1745 5.39844 47.5454 5.39575Z" fill="white"/>
<path fill-rule="evenodd" clip-rule="evenodd" d="M41.6071 42.9242C35.0482 42.9188 29.7364 38.1071 29.7305 32.1718C29.7364 26.2338 35.0512 21.4221 41.6071 21.4194C48.166 21.4248 53.4778 26.2365 53.4838 32.1718C53.4778 38.1071 48.163 42.9188 41.6071 42.9242ZM41.6072 37.5478C44.8732 37.5424 47.5395 35.1285 47.5455 32.1716C47.5395 29.212 44.8732 26.8008 41.6072 26.7954C38.3411 26.8008 35.6748 29.2147 35.6688 32.1716C35.6748 35.1285 38.3411 37.5424 41.6072 37.5478Z" fill="white"/>
</svg>
