<svg width="139" height="126" viewBox="0 0 139 126" fill="none" xmlns="http://www.w3.org/2000/svg">
<g clip-path="url(#clip0_426_1812)">
<path d="M100.134 70.9536L60.3389 34.9258C53.2326 28.4923 42.4152 27.7581 35.7351 33.8059C29.055 39.8537 29.8659 49.6471 36.9722 56.0806L76.767 92.1084C83.8705 98.5394 94.6893 99.2724 101.368 93.2259C108.048 87.1781 107.237 77.3847 100.134 70.9536ZM79.5202 89.6233L59.7891 71.76L77.6577 55.5828L97.3888 73.4462C102.628 78.1898 102.913 85.7022 97.9854 90.1634C93.0578 94.6246 84.7612 94.3682 79.5202 89.6233Z" fill="#F8F8F8"/>
</g>
<defs>
<clipPath id="clip0_426_1812">
<rect width="92.7066" height="92.7066" fill="white" transform="matrix(0.741323 0.671148 -0.741323 0.671148 69.4106 0.82959)"/>
</clipPath>
</defs>
</svg>
